# Blender 4.0.1
# www.blender.org
mtllib pebble.mtl
o Icosphère
v 0.000000 -1.000000 0.000000
v 0.723607 -0.447220 0.525725
v -0.276388 -0.447220 0.850649
v -0.894426 -0.447216 0.203780
v -0.276388 -0.447220 -0.850649
v 0.723607 -0.447220 -0.525725
v 0.276388 0.447220 0.850649
v -0.723607 0.447220 0.525725
v -0.723607 0.447220 -0.525725
v 0.162022 0.146426 -0.688008
v 0.894426 0.447216 0.000000
v 0.000000 1.000000 0.000000
v -0.162456 -0.675495 0.499995
v 0.425323 -0.850654 0.309011
v 0.262869 -0.525738 0.809012
v 0.412404 -0.582730 0.079571
v 0.425323 -0.850654 -0.309011
v -0.525730 -0.850652 0.000000
v -0.688189 -0.525736 0.499997
v -0.162456 -0.850654 -0.499995
v -0.688189 -0.525736 -0.499997
v 0.262869 -0.525738 -0.809012
v 0.951058 0.000000 0.309013
v 0.951058 0.000000 -0.309013
v 0.002952 0.000000 0.761840
v 0.587786 0.000000 0.809017
v -0.951058 0.000000 0.309013
v -0.587786 0.000000 0.809017
v -0.587786 0.000000 -0.809017
v -0.636708 0.000000 -0.309013
v 0.587786 0.000000 -0.809017
v 0.000000 0.000000 -1.000000
v 0.688189 0.525736 0.499997
v -0.262869 0.525738 0.809012
v -0.850648 0.525736 0.000000
v -0.262869 0.525738 -0.809012
v 0.460749 0.525736 -0.348607
v 0.162456 0.572084 0.499995
v 0.525730 0.850652 0.000000
v -0.425323 0.850654 0.309011
v -0.425323 0.536973 -0.309011
v 0.162456 0.422808 -0.499995
v 0.653626 0.007270 0.559015
vn -0.0826 -0.8480 0.5235
vn 0.8140 -0.3547 -0.4600
vn -0.2409 -0.8480 0.4721
vn -0.2680 -0.9435 -0.1947
vn 0.1024 -0.9435 -0.3151
vn 0.7519 -0.5549 -0.3559
vn 0.0959 0.1359 0.9861
vn -0.8265 -0.2260 0.5156
vn -0.5746 -0.3304 -0.7488
vn 0.5346 -0.3304 -0.7779
vn 0.8063 0.0812 0.5858
vn 0.0787 0.1466 0.9861
vn -0.8913 -0.0062 -0.4534
vn -0.3066 -0.1256 -0.9435
vn 0.8026 -0.1256 -0.5831
vn 0.0835 0.9470 0.3101
vn -0.4713 0.6617 0.5831
vn -0.1588 0.9702 -0.1833
vn 0.5933 0.4521 -0.6660
vn 0.5859 0.5355 -0.6083
vn 0.1911 0.6729 -0.7146
vn 0.1015 0.7182 -0.6883
vn 0.2202 0.5484 -0.8067
vn -0.1271 0.6288 -0.7671
vn 0.2044 0.9779 0.0444
vn -0.2234 0.9702 -0.0944
vn -0.5402 0.7504 -0.3809
vn -0.3324 0.8410 -0.4269
vn -0.7002 0.6617 0.2680
vn 0.1698 0.7753 0.6084
vn 0.2489 0.8471 0.4696
vn 0.1147 0.9470 0.2999
vn 0.2202 0.7753 0.5920
vn 0.0747 0.8471 0.5262
vn 0.7240 0.6617 0.1947
vn 0.5940 0.5069 -0.6247
vn 0.6596 0.5790 -0.4792
vn 0.0139 0.6607 -0.7506
vn 0.6305 0.5235 -0.5731
vn -0.3035 0.1876 -0.9342
vn -0.5346 0.3304 -0.7779
vn -0.9434 -0.2739 -0.1871
vn -0.8872 -0.0958 -0.4513
vn -0.9050 0.3304 0.2680
vn -0.5346 0.3304 0.7779
vn 0.0795 -0.0491 0.9956
vn -0.0961 -0.1370 0.9859
vn 0.5746 0.3304 0.7488
vn 0.8090 0.0130 0.5877
vn 0.8897 0.3304 0.3151
vn 0.1577 0.8599 -0.4855
vn 0.3035 -0.1876 -0.9342
vn 0.0247 -0.3304 -0.9435
vn -0.9676 -0.2339 -0.0947
vn -0.9866 0.1317 -0.0965
vn -0.9342 0.1990 -0.2960
vn -0.8026 0.1256 0.5831
vn -0.7947 -0.1876 0.5773
vn -0.5746 -0.3304 0.7488
vn -0.0795 -0.1472 0.9859
vn -0.0803 0.0496 0.9955
vn 0.5346 -0.3304 0.7779
vn 0.9921 0.1256 -0.0000
vn 0.7343 -0.6788 -0.0000
vn 0.7911 -0.5408 0.2857
vn 0.4713 -0.6617 -0.5831
vn 0.1876 -0.7947 -0.5773
vn -0.0385 -0.6617 -0.7488
vn -0.4089 -0.6617 -0.6284
vn -0.4911 -0.7947 -0.3568
vn -0.7670 -0.6225 -0.1553
vn -0.6447 -0.7196 0.2581
vn -0.2415 -0.8477 0.4724
vn -0.2413 -0.8473 0.4732
vn 0.8350 -0.4396 0.3309
vn 0.9988 0.0482 -0.0000
vn 0.3313 -0.9435 -0.0000
vn -0.0829 -0.8473 0.5247
vn -0.0823 -0.8477 0.5241
vn 0.4713 -0.6617 0.5831
vt 0.181819 0.000000
vt 0.227273 0.078731
vt 0.136365 0.078731
vt 0.272728 0.157461
vt 0.318182 0.078731
vt 0.363637 0.157461
vt 0.909091 0.000000
vt 0.954545 0.078731
vt 0.863636 0.078731
vt 0.727273 0.000000
vt 0.772727 0.078731
vt 0.681818 0.078731
vt 0.545455 0.000000
vt 0.590909 0.078731
vt 0.500000 0.078731
vt 0.318182 0.236191
vt 0.090910 0.157461
vt 0.181819 0.157461
vt 0.136365 0.236191
vt 0.818182 0.157461
vt 0.909091 0.157461
vt 0.863636 0.236191
vt 0.636364 0.157461
vt 0.727273 0.157461
vt 0.681818 0.236191
vt 0.454546 0.157461
vt 0.545455 0.157461
vt 0.500000 0.236191
vt 0.272728 0.236191
vt 0.227273 0.236191
vt 0.045455 0.236191
vt 0.772727 0.236191
vt 0.590909 0.236191
vt 0.409092 0.236191
vt 0.181819 0.314921
vt 0.272728 0.314921
vt 0.227273 0.393651
vt 0.000000 0.314921
vt 0.090910 0.314921
vt 0.045455 0.393651
vt 0.727273 0.314921
vt 0.818182 0.314921
vt 0.772727 0.393651
vt 0.545455 0.314921
vt 0.636364 0.314921
vt 0.590909 0.393651
vt 0.363637 0.314921
vt 0.454546 0.314921
vt 0.409092 0.393651
vt 0.500000 0.393651
vt 0.454546 0.472382
vt 0.681818 0.393651
vt 0.636364 0.472382
vt 0.863636 0.393651
vt 0.818182 0.472382
vt 0.909091 0.314921
vt 0.136365 0.393651
vt 0.090910 0.472382
vt 0.318182 0.393651
vt 0.272728 0.472382
vt 0.954545 0.236191
vt 1.000000 0.157461
vt 0.409092 0.078731
vt 0.363637 0.000000
s 0
f 1/1/1 14/2/1 13/3/1
f 2/4/2 14/5/2 16/6/2
f 1/7/3 13/8/3 18/9/3
f 1/10/4 18/11/4 20/12/4
f 1/13/5 20/14/5 17/15/5
f 2/4/6 16/6/6 23/16/6
f 3/17/7 15/18/7 25/19/7
f 4/20/8 19/21/8 27/22/8
f 5/23/9 21/24/9 29/25/9
f 6/26/10 22/27/10 31/28/10
f 2/4/11 23/16/11 43/29/11 26/30/11
f 3/17/12 25/19/12 28/31/12
f 4/20/13 27/22/13 30/32/13
f 5/23/14 29/25/14 32/33/14
f 6/26/15 31/28/15 24/34/15
f 7/35/16 33/36/16 38/37/16
f 8/38/17 34/39/17 40/40/17
f 9/41/18 35/42/18 41/43/18
f 10/44/19 36/45/19 42/46/19
f 11/47/20 37/48/20 39/49/20
f 39/49/21 42/50/21 12/51/21
f 39/49/22 37/48/22 42/50/22
f 37/48/23 10/44/23 42/50/23
f 42/46/24 41/52/24 12/53/24
f 42/46/25 36/45/25 41/52/25
f 36/45/26 9/41/26 41/52/26
f 41/43/27 40/54/27 12/55/27
f 41/43/28 35/42/28 40/54/28
f 35/42/29 8/56/29 40/54/29
f 40/40/30 38/57/30 12/58/30
f 40/40/31 34/39/31 38/57/31
f 34/39/32 7/35/32 38/57/32
f 38/37/33 39/59/33 12/60/33
f 38/37/34 33/36/34 39/59/34
f 33/36/35 11/47/35 39/59/35
f 24/34/36 37/48/36 11/47/36
f 24/34/37 31/28/37 37/48/37
f 31/28/38 10/44/38 37/48/38
f 32/33/39 36/45/39 10/44/39
f 32/33/40 29/25/40 36/45/40
f 29/25/41 9/41/41 36/45/41
f 30/32/42 35/42/42 9/41/42
f 30/32/43 27/22/43 35/42/43
f 27/22/44 8/56/44 35/42/44
f 28/31/45 34/39/45 8/38/45
f 28/31/46 25/19/46 34/39/46
f 25/19/47 7/35/47 34/39/47
f 26/30/48 33/36/48 7/35/48
f 26/30/49 43/29/49 23/16/49 33/36/49
f 23/16/50 11/47/50 33/36/50
f 31/28/51 32/33/51 10/44/51
f 31/28/52 22/27/52 32/33/52
f 22/27/53 5/23/53 32/33/53
f 29/25/54 30/32/54 9/41/54
f 29/25/55 21/24/55 30/32/55
f 21/24/56 4/20/56 30/32/56
f 27/22/57 28/61/57 8/56/57
f 27/22/58 19/21/58 28/61/58
f 19/21/59 3/62/59 28/61/59
f 25/19/60 26/30/60 7/35/60
f 25/19/61 15/18/61 26/30/61
f 15/18/62 2/4/62 26/30/62
f 23/16/63 24/34/63 11/47/63
f 23/16/64 16/6/64 24/34/64
f 16/6/65 6/26/65 24/34/65
f 17/15/66 22/27/66 6/26/66
f 17/15/67 20/14/67 22/27/67
f 20/14/68 5/23/68 22/27/68
f 20/12/69 21/24/69 5/23/69
f 20/12/70 18/11/70 21/24/70
f 18/11/71 4/20/71 21/24/71
f 18/9/72 19/21/72 4/20/72
f 18/9/73 13/8/73 19/21/73
f 13/8/74 3/62/74 19/21/74
f 16/6/75 17/63/75 6/26/75
f 16/6/76 14/5/76 17/63/76
f 14/5/77 1/64/77 17/63/77
f 13/3/78 15/18/78 3/17/78
f 13/3/79 14/2/79 15/18/79
f 14/2/80 2/4/80 15/18/80
