# Blender 4.0.2
# www.blender.org
mtllib WallBreak.mtl
o Cube
v -1.600000 -0.200000 1.000000
v -1.600000 0.200000 1.000000
v -1.600000 -0.200000 -1.000000
v 0.304172 0.021182 0.288096
v -1.600000 0.200000 -1.000000
v -0.557265 0.010464 0.887593
v 1.600000 -0.200000 1.000000
v 1.600000 0.200000 1.000000
v 0.304172 0.058818 -0.248096
v 1.600000 -0.200000 -1.000000
v 1.600000 0.200000 -1.000000
v -0.557265 0.069536 -0.847593
v -0.148849 0.182615 0.687544
v -1.293695 -0.154663 -0.902526
v 0.370000 0.040000 0.020000
v -1.306305 -0.154663 0.942526
v -0.148849 -0.102615 -0.647544
v -1.600000 -0.068092 0.909186
v -1.600000 0.186667 0.908259
v -1.600000 0.200000 0.899590
v -1.600000 0.200000 -0.851309
v -1.600000 -0.156543 0.878723
v -1.600000 -0.200000 0.841762
v -1.600000 -0.200000 -0.807581
v -1.600000 -0.106667 -0.868259
v -1.600000 0.148092 -0.869186
v -1.138743 -0.200000 -0.831147
v -1.370358 -0.200000 -0.856666
v -0.007907 -0.200000 -0.099107
v -0.145441 -0.200000 -0.306989
v -0.188803 -0.200000 -0.426872
v -0.282962 -0.200000 -0.613162
v -1.219971 -0.200000 0.892678
v -1.461257 -0.200000 0.871147
v -0.205760 -0.200000 0.564901
v -0.130158 -0.200000 0.349249
v -0.336385 -0.200000 0.651993
v -0.720233 -0.200000 0.781548
v -0.027929 -0.200000 0.054354
v 0.077928 -0.200000 0.229244
v -1.514910 0.200000 0.917778
v -1.423901 0.200000 -0.889177
v -1.305182 0.200000 -0.902526
v 0.159759 0.200000 -0.210530
v 0.092190 0.200000 -0.098897
v -0.134066 0.200000 -0.379982
v -0.420344 0.200000 -0.701548
v -0.658287 0.200000 -0.781857
v -0.193861 0.200000 -0.550544
v -1.149067 0.200000 -0.890995
v -1.294818 0.200000 0.942526
v -1.179836 0.200000 0.934033
v -0.531249 0.200000 0.772712
v 0.118062 0.200000 0.099405
v 0.026372 0.200000 0.237992
v -0.036426 0.200000 0.411613
v -0.172791 0.200000 0.681406
vn -1.0000 -0.0000 -0.0000
vn -0.0000 -0.0000 -1.0000
vn 1.0000 -0.0000 -0.0000
vn -0.0000 -0.0000 1.0000
vn -0.0000 -1.0000 -0.0000
vn -0.0000 1.0000 -0.0000
vn 0.1764 0.5365 0.8252
vn -0.5196 0.8517 -0.0678
vn -0.2110 -0.4853 -0.8485
vn -0.0704 0.7658 0.6393
vn -0.5084 -0.8413 -0.1839
vn -0.0737 0.0024 -0.9973
vn -0.4013 -0.5956 0.6958
vn -0.2589 -0.5870 0.7671
vn -0.6886 -0.5934 -0.4168
vn -0.9163 -0.2393 0.3212
vn -0.5237 -0.3297 0.7855
vn -0.1812 -0.5508 0.8147
vn 0.1992 0.3191 -0.9265
vn 0.1117 -0.0036 -0.9937
vn 0.1764 -0.5365 -0.8252
vn -0.5782 -0.7206 -0.3826
vn -0.5196 -0.8517 0.0678
vn -0.5216 0.8114 0.2636
vn -0.2039 0.5635 0.8006
vn -0.2110 0.4853 0.8485
vn 0.1593 0.6396 -0.7520
vn 0.0551 0.7843 -0.6179
vn -0.1812 0.5508 -0.8147
vn -0.2039 -0.5635 -0.8006
vn -0.5216 -0.8114 -0.2636
vn -0.5084 0.8413 0.1839
vn -0.5782 0.7206 0.3826
vn -0.0737 -0.0024 0.9973
vn 0.1117 0.0036 0.9937
vn 0.1992 -0.3191 0.9265
vn -0.2589 0.5870 -0.7671
vn -0.5237 0.3297 -0.7855
vn -0.9163 0.2393 -0.3212
vn -0.4013 0.5956 -0.6958
vn -0.6886 0.5934 0.4168
vt 0.625000 0.231414
vt 0.625000 0.250000
vt 0.375000 0.250000
vt 0.375000 0.225948
vt 0.433333 0.233532
vt 0.592558 0.233648
vt 0.375000 0.019780
vt 0.375000 0.000000
vt 0.625000 0.000000
vt 0.625000 0.012551
vt 0.616667 0.011468
vt 0.457442 0.011352
vt 0.402160 0.015160
vt 0.625000 0.500000
vt 0.375000 0.500000
vt 0.625000 0.750000
vt 0.375000 0.750000
vt 0.625000 1.000000
vt 0.375000 1.000000
vt 0.125000 0.524052
vt 0.125000 0.500000
vt 0.125000 0.750000
vt 0.125000 0.730220
vt 0.135839 0.733893
vt 0.154690 0.736585
vt 0.193732 0.722694
vt 0.223720 0.706499
vt 0.233925 0.695613
vt 0.239831 0.668656
vt 0.256088 0.653655
vt 0.247818 0.631794
vt 0.249382 0.612612
vt 0.238637 0.586626
vt 0.235250 0.571641
vt 0.227894 0.548355
vt 0.161036 0.521107
vt 0.142941 0.517917
vt 0.875000 0.737449
vt 0.875000 0.750000
vt 0.875000 0.500000
vt 0.875000 0.518586
vt 0.861242 0.513853
vt 0.851967 0.512184
vt 0.839771 0.513626
vt 0.801429 0.527268
vt 0.782839 0.537307
vt 0.765145 0.556182
vt 0.760474 0.577502
vt 0.737519 0.598684
vt 0.742798 0.612638
vt 0.740776 0.637426
vt 0.747940 0.654749
vt 0.752846 0.676452
vt 0.763499 0.710176
vt 0.791504 0.721589
vt 0.842175 0.741754
vt 0.851158 0.742816
vt 0.868352 0.739722
vt 0.308734 0.219826
vt 0.318182 0.236191
vt 0.334175 0.208491
vt 0.312284 0.193140
vt 0.090910 0.157461
vt 0.136365 0.236191
vt 0.157597 0.199415
vt 0.131534 0.157461
vt 0.893908 0.183758
vt 0.909091 0.157461
vt 0.818182 0.157461
vt 0.856609 0.224019
vt 0.299767 0.236191
vt 0.308734 0.219826
vt 0.101606 0.236191
vt 0.072323 0.189655
vt 0.772727 0.236191
vt 0.855542 0.236191
vt 0.856609 0.224019
vt 0.248879 0.356228
vt 0.272728 0.314921
vt 0.181819 0.314921
vt 0.197270 0.341683
vt 0.363637 0.314921
vt 0.382199 0.347072
vt 0.393510 0.314921
vt 0.155889 0.314921
vt 0.166368 0.341683
vt 0.300707 0.363382
vt 0.345075 0.347072
vt 0.393510 0.314921
vt 0.399550 0.252718
vt 0.788287 0.263141
vt 0.759583 0.258959
vt 0.847644 0.263891
vt 0.852087 0.256196
vt 0.847644 0.263891
vt 0.850772 0.266084
vt 0.122209 0.260709
vt 0.101606 0.236191
vt 0.155889 0.314921
vt 0.122209 0.260709
vt 0.256682 0.287127
vt 0.208722 0.268324
vt 0.754312 0.236191
vt 0.748333 0.247187
vt 0.759583 0.258959
vt 0.763841 0.220799
vt 0.769992 0.157461
vt 0.893908 0.183758
vt 0.911956 0.162423
vt 1.000000 0.157461
vt 0.911956 0.162423
vt 0.981413 0.189655
vt 0.208722 0.268324
vt 0.188502 0.236191
vt 0.188502 0.236191
vt 0.400997 0.236191
vt 0.400997 0.236191
vt 0.402862 0.225400
vt 0.393532 0.209241
vt 0.410377 0.211695
vt 0.402862 0.225400
vt 0.788238 0.105595
vt 0.769992 0.157461
vt 0.848126 0.105595
vt 0.873716 0.096188
vt 0.939244 0.105233
vt 0.873716 0.096188
vt 0.975794 0.115534
vt 0.939244 0.105233
vt 0.131534 0.157461
vt 0.115116 0.115534
s 0
f 21/1/1 5/2/1 3/3/1 24/4/1 25/5/1 26/6/1
f 23/7/1 1/8/1 2/9/1 20/10/1 19/11/1 18/12/1 22/13/1
f 3/3/2 5/2/2 11/14/2 10/15/2
f 10/15/3 11/14/3 8/16/3 7/17/3
f 7/17/4 8/16/4 2/18/4 1/19/4
f 24/20/5 3/21/5 10/15/5 7/17/5 1/22/5 23/23/5 34/24/5 33/25/5 38/26/5 37/27/5 35/28/5 36/29/5 40/30/5 39/31/5 29/32/5 30/33/5 31/34/5 32/35/5 27/36/5 28/37/5
f 20/38/6 2/39/6 8/16/6 11/14/6 5/40/6 21/41/6 42/42/6 43/43/6 50/44/6 48/45/6 47/46/6 49/47/6 46/48/6 44/49/6 45/50/6 54/51/6 55/52/6 56/53/6 57/54/6 53/55/6 52/56/6 51/57/6 41/58/6
f 28/59/7 14/60/7 25/61/7 24/62/7
f 4/63/8 15/64/8 29/65/8 39/66/8
f 53/67/9 13/68/9 6/69/9 52/70/9
f 27/71/10 14/60/10 28/72/10
f 55/73/11 15/64/11 4/63/11 56/74/11
f 6/69/12 16/75/12 51/76/12 52/77/12
f 46/78/13 17/79/13 9/80/13 44/81/13
f 12/82/14 47/83/14 48/84/14
f 9/80/15 45/85/15 44/86/15
f 17/79/16 46/78/16 49/87/16
f 12/82/17 17/79/17 49/87/17 47/88/17
f 12/82/18 48/89/18 50/90/18
f 18/91/19 16/75/19 22/92/19
f 16/75/20 18/91/20 19/93/20 41/94/20 51/76/20
f 41/94/21 19/95/21 20/96/21
f 54/97/22 15/64/22 55/98/22
f 45/99/23 9/80/23 15/64/23 54/100/23
f 9/80/24 17/79/24 32/101/24 31/102/24
f 32/101/25 17/79/25 14/60/25 27/71/25
f 14/60/26 17/79/26 12/82/26
f 34/103/27 23/104/27 22/105/27 16/75/27
f 33/106/28 34/103/28 16/75/28
f 16/75/29 6/69/29 38/107/29 33/106/29
f 13/68/30 53/108/30 57/109/30
f 4/110/31 13/68/31 57/111/31 56/112/31
f 9/80/32 31/113/32 30/114/32 15/64/32
f 15/64/33 30/115/33 29/65/33
f 14/60/34 12/82/34 50/90/34 43/116/34
f 43/117/35 42/118/35 26/119/35 25/61/35 14/60/35
f 21/120/36 26/119/36 42/121/36
f 37/122/37 38/123/37 6/69/37
f 37/124/38 6/69/38 13/68/38 35/125/38
f 13/68/39 36/126/39 35/127/39
f 13/68/40 4/110/40 40/128/40 36/129/40
f 4/63/41 39/130/41 40/131/41
